<svg width="105" height="36" viewBox="0 0 105 36" fill="none" xmlns="http://www.w3.org/2000/svg">
<path d="M5.72 24.162L1.254 19.3L5.72 14.438H10.45L5.962 19.3L10.45 24.162H5.72Z" fill="#391E86"/>
<path d="M13.616 17.84C13.616 16.5787 13.8507 15.4713 14.32 14.518C14.804 13.5647 15.4567 12.8313 16.278 12.318C17.0993 11.8047 18.016 11.548 19.028 11.548C19.8347 11.548 20.568 11.7167 21.228 12.054C21.9027 12.3913 22.4307 12.846 22.812 13.418V7.72H26.574V24H22.812V22.24C22.46 22.8267 21.954 23.296 21.294 23.648C20.6487 24 19.8933 24.176 19.028 24.176C18.016 24.176 17.0993 23.9193 16.278 23.406C15.4567 22.878 14.804 22.1373 14.32 21.184C13.8507 20.216 13.616 19.1013 13.616 17.84ZM22.812 17.862C22.812 16.9233 22.548 16.1827 22.02 15.64C21.5067 15.0973 20.876 14.826 20.128 14.826C19.38 14.826 18.742 15.0973 18.214 15.64C17.7007 16.168 17.444 16.9013 17.444 17.84C17.444 18.7787 17.7007 19.5267 18.214 20.084C18.742 20.6267 19.38 20.898 20.128 20.898C20.876 20.898 21.5067 20.6267 22.02 20.084C22.548 19.5413 22.812 18.8007 22.812 17.862ZM40.0756 8.556V11.57H35.9836V24H32.2216V11.57H28.1296V8.556H40.0756ZM53.7557 11.724V24H49.9937V22.328C49.6124 22.8707 49.0917 23.3107 48.4317 23.648C47.7864 23.9707 47.0677 24.132 46.2757 24.132C45.337 24.132 44.5084 23.9267 43.7897 23.516C43.071 23.0907 42.5137 22.482 42.1177 21.69C41.7217 20.898 41.5237 19.9667 41.5237 18.896V11.724H45.2637V18.39C45.2637 19.2113 45.4764 19.8493 45.9017 20.304C46.327 20.7587 46.899 20.986 47.6177 20.986C48.351 20.986 48.9304 20.7587 49.3557 20.304C49.781 19.8493 49.9937 19.2113 49.9937 18.39V11.724H53.7557ZM59.8899 13.462C60.2419 12.89 60.7479 12.428 61.4079 12.076C62.0679 11.724 62.8232 11.548 63.6739 11.548C64.6859 11.548 65.6026 11.8047 66.4239 12.318C67.2452 12.8313 67.8906 13.5647 68.3599 14.518C68.8439 15.4713 69.0859 16.5787 69.0859 17.84C69.0859 19.1013 68.8439 20.216 68.3599 21.184C67.8906 22.1373 67.2452 22.878 66.4239 23.406C65.6026 23.9193 64.6859 24.176 63.6739 24.176C62.8086 24.176 62.0532 24.0073 61.4079 23.67C60.7626 23.318 60.2566 22.856 59.8899 22.284V24H56.1279V7.72H59.8899V13.462ZM65.2579 17.84C65.2579 16.9013 64.9939 16.168 64.4659 15.64C63.9526 15.0973 63.3146 14.826 62.5519 14.826C61.8039 14.826 61.1659 15.0973 60.6379 15.64C60.1246 16.1827 59.8679 16.9233 59.8679 17.862C59.8679 18.8007 60.1246 19.5413 60.6379 20.084C61.1659 20.6267 61.8039 20.898 62.5519 20.898C63.2999 20.898 63.9379 20.6267 64.4659 20.084C64.9939 19.5267 65.2579 18.7787 65.2579 17.84ZM82.3015 17.664C82.3015 18.016 82.2795 18.3827 82.2355 18.764H73.7215C73.7802 19.5267 74.0222 20.1133 74.4475 20.524C74.8875 20.92 75.4229 21.118 76.0535 21.118C76.9922 21.118 77.6449 20.722 78.0115 19.93H82.0155C81.8102 20.7367 81.4362 21.4627 80.8935 22.108C80.3655 22.7533 79.6982 23.2593 78.8915 23.626C78.0849 23.9927 77.1829 24.176 76.1855 24.176C74.9829 24.176 73.9122 23.9193 72.9735 23.406C72.0349 22.8927 71.3015 22.1593 70.7735 21.206C70.2455 20.2527 69.9815 19.138 69.9815 17.862C69.9815 16.586 70.2382 15.4713 70.7515 14.518C71.2795 13.5647 72.0129 12.8313 72.9515 12.318C73.8902 11.8047 74.9682 11.548 76.1855 11.548C77.3735 11.548 78.4295 11.7973 79.3535 12.296C80.2775 12.7947 80.9962 13.506 81.5095 14.43C82.0375 15.354 82.3015 16.432 82.3015 17.664ZM78.4515 16.674C78.4515 16.0287 78.2315 15.5153 77.7915 15.134C77.3515 14.7527 76.8015 14.562 76.1415 14.562C75.5109 14.562 74.9755 14.7453 74.5355 15.112C74.1102 15.4787 73.8462 15.9993 73.7435 16.674H78.4515Z" fill="#111111"/>
<path d="M92.746 6.1L86.85 31.114H83.22L89.116 6.1H92.746ZM94.0248 14.438H98.7548L103.221 19.3L98.7548 24.162H94.0248L98.5128 19.3L94.0248 14.438Z" fill="#391E86"/>
</svg>
