<svg width="127" height="25" viewBox="0 0 127 25" fill="none" xmlns="http://www.w3.org/2000/svg">
<g clip-path="url(#clip0_5_70)">
<path d="M33.7702 3.96917C33.3746 2.50074 32.2168 1.34294 30.7485 0.947592C28.0658 0.213379 17.3349 0.213379 17.3349 0.213379C17.3349 0.213379 6.6041 0.213379 3.92141 0.919353C2.48121 1.3147 1.29517 2.50074 0.899823 3.96917C0.193848 6.65186 0.193848 12.215 0.193848 12.215C0.193848 12.215 0.193848 17.8063 0.899823 20.4608C1.29517 21.9292 2.45297 23.087 3.92141 23.4823C6.63235 24.2166 17.3349 24.2166 17.3349 24.2166C17.3349 24.2166 28.0658 24.2166 30.7485 23.5106C32.2168 23.1152 33.3746 21.9574 33.7702 20.489C34.4759 17.8063 34.4759 12.2432 34.4759 12.2432C34.4759 12.2432 34.5042 6.65186 33.7702 3.96917Z" fill="#522ba7"/>
<path d="M13.918 7.07547V17.3545L22.8415 12.215L13.918 7.07547Z" fill="white"/>
<path d="M121.282 17.6871C121.282 18.6472 121.31 19.3815 121.367 19.8615C121.423 20.3416 121.536 20.7087 121.734 20.9064C121.903 21.1323 122.185 21.2452 122.581 21.2452C123.089 21.2452 123.428 21.0476 123.626 20.6522C123.823 20.2569 123.908 19.6074 123.936 18.6755L126.845 18.8449C126.873 18.9861 126.873 19.1555 126.873 19.3815C126.873 20.7652 126.506 21.81 125.744 22.4878C124.981 23.1655 123.908 23.5043 122.524 23.5043C120.858 23.5043 119.7 22.9678 119.023 21.923C118.345 20.8781 118.006 19.2685 118.006 17.0659V14.4396C118.006 12.1805 118.345 10.5427 119.051 9.49781C119.757 8.45297 120.943 7.94466 122.609 7.94466C123.767 7.94466 124.671 8.17058 125.292 8.59415C125.913 9.01773 126.337 9.69547 126.591 10.5709C126.845 11.4745 126.958 12.717 126.958 14.2984V16.8682H121.282V17.6871ZM121.705 10.5991C121.536 10.825 121.423 11.1639 121.367 11.644C121.31 12.124 121.282 12.8582 121.282 13.8466V14.9197H123.767V13.8466C123.767 12.8865 123.738 12.1523 123.682 11.644C123.626 11.1357 123.484 10.7968 123.315 10.5991C123.146 10.4014 122.863 10.2885 122.524 10.2885C122.129 10.2603 121.875 10.3732 121.705 10.5991Z" fill="#282828"/>
<path d="M104.96 8.28354V23.3349H102.305L102.023 21.4994H101.938C101.232 22.8831 100.131 23.5891 98.6907 23.5891C97.7023 23.5891 96.968 23.2502 96.488 22.6007C96.008 21.9512 95.782 20.9346 95.782 19.5226V8.28354H99.1707V19.325C99.1707 20.0027 99.2554 20.4828 99.3964 20.7652C99.5377 21.0476 99.792 21.1887 100.131 21.1887C100.413 21.1887 100.696 21.104 100.978 20.9064C101.26 20.7369 101.458 20.511 101.571 20.2286V8.28354H104.96Z" fill="#282828"/>
<path d="M96.7985 5.45963H93.4381V23.3067H90.1341V5.45963H86.7736V2.72044H96.7985V5.45963Z" fill="#282828"/>
<path d="M116.17 10.6838C115.973 9.72373 115.634 9.04598 115.182 8.62238C114.73 8.1988 114.081 7.97289 113.29 7.97289C112.669 7.97289 112.076 8.14232 111.539 8.50945C111.003 8.84829 110.579 9.32838 110.297 9.89313H110.269V1.95798H106.993V23.3067H109.789L110.127 21.8947H110.212C110.466 22.403 110.862 22.7984 111.398 23.109C111.935 23.3914 112.5 23.5608 113.149 23.5608C114.307 23.5608 115.126 23.0243 115.662 21.9795C116.199 20.9346 116.481 19.2685 116.481 17.0376V14.6655C116.453 12.943 116.368 11.6157 116.17 10.6838ZM113.064 16.8117C113.064 17.913 113.008 18.7602 112.923 19.3815C112.838 20.0027 112.669 20.4545 112.471 20.7087C112.245 20.9628 111.963 21.104 111.624 21.104C111.342 21.104 111.087 21.0476 110.862 20.9064C110.636 20.7652 110.438 20.5675 110.297 20.3133V11.7852C110.41 11.3898 110.607 11.051 110.89 10.7686C111.172 10.5144 111.483 10.3732 111.793 10.3732C112.132 10.3732 112.415 10.5144 112.584 10.7686C112.782 11.051 112.895 11.5028 112.98 12.124C113.064 12.7735 113.093 13.6772 113.093 14.835V16.8117H113.064Z" fill="#282828"/>
<path fill-rule="evenodd" clip-rule="evenodd" d="M47.4134 15.4269C47.3992 15.5173 47.3645 15.6034 47.3119 15.6786C47.259 15.7539 47.1899 15.8164 47.1094 15.8614C46.9471 15.965 46.805 16.0169 46.6615 16.0687C46.3555 16.1731 46.0335 16.2776 45.6928 16.3988C45.3336 16.5199 45.0116 16.6411 44.7243 16.7288C44.366 16.85 44.0253 16.9544 43.7016 17.0756C43.458 17.1787 43.2294 17.313 43.0213 17.4751C42.8277 17.6484 42.659 17.8469 42.5192 18.065C42.3757 18.3074 42.285 18.6199 42.285 18.9843C42.285 19.7138 42.4643 20.2687 42.8235 20.6155C43.1819 20.9806 43.8462 21.1536 44.8306 21.1536C45.8349 21.1536 46.516 20.9631 46.8761 20.5812C47.2336 20.1993 47.4126 19.662 47.4126 18.9684V15.4269H47.4134ZM44.8315 7.73883C46.5896 7.73883 47.88 8.06892 48.7041 8.7458C49.5291 9.40597 49.9414 10.255 49.9414 11.2611V19.835C49.9414 20.1818 49.8703 20.5637 49.7453 20.9798C49.6186 21.3976 49.3685 21.7787 48.9738 22.1247C48.5975 22.4731 48.0778 22.7681 47.4143 22.9937C46.751 23.2194 45.8905 23.3405 44.8326 23.3405C43.776 23.3405 42.9139 23.2194 42.2515 22.9937C41.5888 22.7681 41.0682 22.4731 40.6919 22.1247C40.3423 21.8129 40.0771 21.4192 39.9213 20.9798C39.7945 20.5645 39.7227 20.1826 39.7227 19.8358V18.4653C39.7227 17.7358 39.9196 17.0589 40.3143 16.4681C40.709 15.8614 41.2643 15.4452 41.9818 15.1845C42.3401 15.0633 42.7525 14.9422 43.2182 14.7859C43.6848 14.6288 44.1139 14.4725 44.545 14.3347C44.9761 14.1951 45.3523 14.0556 45.6743 13.9336C45.8684 13.8567 46.0659 13.7875 46.266 13.7263L46.5888 13.57C46.7155 13.5007 46.8397 13.3962 46.9656 13.2575C47.0906 13.1196 47.198 12.9633 47.2884 12.7895C47.3841 12.6013 47.4333 12.3934 47.4322 12.1829V11.6271C47.4336 11.4235 47.3902 11.2219 47.3054 11.0363C47.2344 10.8274 47.0906 10.6369 46.8937 10.4639C46.6967 10.2901 46.4274 10.1514 46.1054 10.0461C45.7823 9.94329 45.3532 9.89064 44.8678 9.89064C43.8639 9.89064 43.2003 10.0829 42.842 10.4806C42.5379 10.8283 42.3586 11.262 42.3231 11.7475C42.3231 11.8519 42.2336 11.9213 42.1253 11.9213L39.9389 11.9564C39.8871 11.9566 39.8371 11.9365 39.8001 11.9005C39.7629 11.8645 39.742 11.8155 39.7411 11.7642V11.2628C39.7411 10.7756 39.8317 10.3243 40.0287 9.89064C40.2265 9.4561 40.5314 9.09261 40.9431 8.77923C41.3555 8.46754 41.894 8.20764 42.5387 8.03381C43.1668 7.82491 43.9374 7.73883 44.8334 7.73883H44.8315ZM84.4692 15.4269C84.4549 15.5173 84.4202 15.6034 84.3676 15.6786C84.3148 15.7539 84.2457 15.8164 84.1651 15.8614C84.0045 15.965 83.8607 16.0169 83.717 16.0687C83.4129 16.1731 83.0892 16.2776 82.7485 16.3988C82.3893 16.5199 82.0665 16.6411 81.7801 16.7288C81.4209 16.85 81.0802 16.9544 80.7574 17.0756C80.5134 17.1786 80.2846 17.3129 80.0762 17.4751C79.8829 17.6485 79.7145 17.8469 79.5749 18.065C79.4314 18.3074 79.3416 18.6199 79.3416 18.9843C79.3416 19.7138 79.5192 20.2687 79.8784 20.6155C80.2368 20.9806 80.9011 21.1536 81.8864 21.1536C82.8923 21.1536 83.5726 20.9631 83.9318 20.5812C84.2893 20.1993 84.4683 19.662 84.4683 18.9684V15.4269H84.4692ZM81.888 7.73883C83.6462 7.73883 84.9366 8.06892 85.7615 8.7458C86.5856 9.40597 86.998 10.255 86.998 11.2611V19.835C86.998 20.1818 86.9269 20.5637 86.801 20.9798C86.676 21.3976 86.4251 21.7787 86.0304 22.1247C85.6541 22.4731 85.1344 22.7681 84.4708 22.9937C83.8084 23.2194 82.9471 23.3405 81.89 23.3405C80.8334 23.3405 79.9713 23.2194 79.3089 22.9937C78.6462 22.7681 78.1256 22.4731 77.7494 22.1247C77.4002 21.8127 77.1356 21.4191 76.9804 20.9798C76.8536 20.5637 76.7818 20.1818 76.7818 19.835V18.4645C76.7818 17.7349 76.9795 17.0581 77.3734 16.4673C77.7681 15.8606 78.3242 15.4444 79.0409 15.1837C79.3992 15.0625 79.8116 14.9414 80.2782 14.7851C80.7431 14.628 81.1742 14.4717 81.605 14.3338C82.036 14.1943 82.4114 14.0547 82.7342 13.9327C82.9284 13.8558 83.1259 13.7867 83.3259 13.7255L83.6487 13.5692C83.7738 13.4999 83.8996 13.3954 84.0247 13.2567C84.1531 13.1157 84.2616 12.9583 84.3475 12.7887C84.4432 12.6005 84.4924 12.3926 84.4913 12.182V11.6263C84.4927 11.4226 84.4493 11.2211 84.3645 11.0355C84.2935 10.8266 84.1506 10.6361 83.9528 10.4631C83.7558 10.2893 83.4881 10.1505 83.1645 10.0453C82.8414 9.94245 82.4123 9.8898 81.9269 9.8898C80.923 9.8898 80.2606 10.082 79.9014 10.4798C79.597 10.8274 79.4177 11.2611 79.3813 11.7466C79.3813 11.8511 79.2927 11.9205 79.1855 11.9205H77.0109C76.9594 11.9203 76.9101 11.9002 76.8735 11.8646C76.8369 11.829 76.8159 11.7807 76.8148 11.7299V11.226C76.8148 10.7413 76.9043 10.2901 77.102 9.85557C77.299 9.42267 77.6033 9.05751 78.0148 8.7458C78.4288 8.43328 78.9656 8.17254 79.6121 7.99958C80.2208 7.82407 80.9915 7.73799 81.888 7.73799V7.73883ZM74.1973 7.80821H75.6323C75.7574 7.80821 75.8472 7.9302 75.8116 8.05054L75.3271 9.85557C75.3103 9.94329 75.22 9.9951 75.1481 9.9951H74.1441C73.6065 9.9951 73.1762 10.0645 72.8358 10.204C72.5121 10.3419 72.2442 10.4982 72.064 10.6887C71.885 10.8809 71.7767 11.0706 71.7236 11.262C71.6752 11.449 71.6511 11.6413 71.6517 11.8344V22.9937C71.6506 23.0449 71.629 23.0936 71.5918 23.1293C71.5549 23.165 71.5048 23.1847 71.4531 23.1843H69.303C69.2515 23.1843 69.202 23.1643 69.1651 23.1287C69.1285 23.0931 69.1072 23.0447 69.1061 22.9937V11.3305C69.1061 11.1232 69.1416 10.8107 69.2311 10.4113C69.303 10.0127 69.5184 9.63077 69.8591 9.23131C70.1999 8.84941 70.7017 8.50262 71.3829 8.22518C72.0648 7.94609 72.9972 7.80737 74.1973 7.80737V7.80821ZM66.9544 19.4531V19.9737C66.9544 20.1993 66.9205 20.5118 66.8302 20.9113C66.7583 21.2923 66.5429 21.6918 66.2021 22.0728C65.8614 22.4556 65.3596 22.8024 64.6784 23.0798C63.9973 23.3581 63.0641 23.4976 61.864 23.4976C60.6639 23.4976 59.7307 23.3581 59.0496 23.0798C58.3684 22.8024 57.8663 22.4731 57.5259 22.0737C57.1852 21.6926 56.9698 21.2932 56.8979 20.8954C56.8268 20.4943 56.7737 20.2001 56.7737 19.9745V8.29456C56.7737 8.1901 56.8632 8.10235 56.9706 8.10235H59.1036C59.2118 8.10235 59.3014 8.1901 59.3014 8.29456V19.2274C59.3014 19.5918 59.3548 19.8525 59.4088 20.0606C59.4636 20.2695 59.571 20.4767 59.7324 20.6506C59.893 20.8411 60.145 20.9974 60.4846 21.1185C60.8074 21.2405 61.2564 21.3107 61.8117 21.3107C62.3863 21.3107 62.8512 21.2405 63.1925 21.1185C63.5332 20.9974 63.7841 20.8411 63.9634 20.6673C64.1408 20.4943 64.2675 20.3037 64.3209 20.0948C64.3749 19.8859 64.4476 19.7138 64.4476 19.2091V8.27783C64.4476 8.17421 64.5363 8.0873 64.6437 8.0873H66.7767C66.8833 8.0873 66.9728 8.17421 66.9728 8.27951V19.4547H66.956L66.9544 19.4531ZM52.2733 2.23856H54.4071C54.5145 2.23856 54.604 2.32463 54.604 2.42825V23.0974C54.6035 23.1485 54.5825 23.1974 54.5456 23.2334C54.5086 23.2694 54.4589 23.2896 54.4071 23.2896H52.2733C52.2215 23.2896 52.1717 23.2694 52.1348 23.2334C52.0979 23.1974 52.0769 23.1485 52.0763 23.0974V2.42825C52.0931 2.32463 52.1659 2.23772 52.2733 2.23772V2.23856Z" fill="#282828"/>
</g>
<defs>
<clipPath id="clip0_5_70">
<rect width="127" height="24.337" fill="white"/>
</clipPath>
</defs>
</svg>
